<?xml version="1.0" encoding="UTF-8"?>
<svg xmlns="http://www.w3.org/2000/svg" id="lyra-S13-outing" viewBox="0 0 400 300" width="400" height="300"><rect x="0" y="0" width="400" height="300" fill="#e8e7e1"/><path d="M4 8L12 8" fill="none" stroke="#1b1b1b" stroke-width="1" stroke-linecap="round" stroke-linejoin="round"/><path d="M8 4L8 12" fill="none" stroke="#1b1b1b" stroke-width="1" stroke-linecap="round" stroke-linejoin="round"/><path d="M388 8L396 8" fill="none" stroke="#1b1b1b" stroke-width="1" stroke-linecap="round" stroke-linejoin="round"/><path d="M392 4L392 12" fill="none" stroke="#1b1b1b" stroke-width="1" stroke-linecap="round" stroke-linejoin="round"/><path d="M4 292L12 292" fill="none" stroke="#1b1b1b" stroke-width="1" stroke-linecap="round" stroke-linejoin="round"/><path d="M8 288L8 296" fill="none" stroke="#1b1b1b" stroke-width="1" stroke-linecap="round" stroke-linejoin="round"/><path d="M388 292L396 292" fill="none" stroke="#1b1b1b" stroke-width="1" stroke-linecap="round" stroke-linejoin="round"/><path d="M392 288L392 296" fill="none" stroke="#1b1b1b" stroke-width="1" stroke-linecap="round" stroke-linejoin="round"/><text x="16" y="22" font-family="'Schibsted Grotesk', 'Noto Sans KR', sans-serif" font-weight="700" font-size="8.5" text-anchor="start" letter-spacing="1.02" fill="#1b1b1b">LYRA</text><text x="200" y="22" font-family="'Schibsted Grotesk', 'Noto Sans KR', sans-serif" font-weight="700" font-size="8.5" text-anchor="middle" letter-spacing="1.02" fill="#1b1b1b">TUESDAY · LEARNED</text><text x="384" y="22" font-family="'Schibsted Grotesk', 'Noto Sans KR', sans-serif" font-weight="700" font-size="8.5" text-anchor="end" letter-spacing="1.02" fill="#1b1b1b">10:00</text><text x="16" y="52" font-family="'Schibsted Grotesk', 'Noto Sans KR', sans-serif" font-weight="700" font-size="9" text-anchor="start" letter-spacing="1.08" fill="#1b1b1b">USUALLY OUT</text><text x="14" y="96" font-family="'Schibsted Grotesk', 'Noto Sans KR', sans-serif" font-weight="800" font-size="40" text-anchor="start" fill="#1b1b1b">10:30–15:00</text><text x="16" y="116" font-family="'Schibsted Grotesk', 'Noto Sans KR', sans-serif" font-weight="700" font-size="8.5" text-anchor="start" letter-spacing="1.02" fill="#1b1b1b">3 OF THE LAST 4 TUESDAYS</text><rect x="177" y="144" width="69" height="12" fill="#8f8d86"/><path d="M16 150L384 150" fill="none" stroke="#1b1b1b" stroke-width="1" stroke-linecap="round" stroke-linejoin="round"/><path d="M16 147L16 153" fill="none" stroke="#1b1b1b" stroke-width="1" stroke-linecap="round" stroke-linejoin="round"/><path d="M108 147L108 153" fill="none" stroke="#1b1b1b" stroke-width="1" stroke-linecap="round" stroke-linejoin="round"/><path d="M200 147L200 153" fill="none" stroke="#1b1b1b" stroke-width="1" stroke-linecap="round" stroke-linejoin="round"/><path d="M292 147L292 153" fill="none" stroke="#1b1b1b" stroke-width="1" stroke-linecap="round" stroke-linejoin="round"/><path d="M384 147L384 153" fill="none" stroke="#1b1b1b" stroke-width="1" stroke-linecap="round" stroke-linejoin="round"/><path d="M16 150L169.33 150" fill="none" stroke="#1b1b1b" stroke-width="3" stroke-linecap="round" stroke-linejoin="round"/><path d="M150.83 150A4.5 4.5 0 1 1 141.83 150A4.5 4.5 0 1 1 150.83 150" fill="#1b1b1b"/><path d="M213.17 150A5.5 5.5 0 1 1 202.17 150A5.5 5.5 0 1 1 213.17 150" fill="#c8102e"/><path d="M304.17 150A4.5 4.5 0 1 1 295.17 150A4.5 4.5 0 1 1 304.17 150" fill="#e8e7e1"/><path d="M304.17 150A4.5 4.5 0 1 1 295.17 150A4.5 4.5 0 1 1 304.17 150" fill="none" stroke="#1b1b1b" stroke-width="1.5" stroke-linecap="round" stroke-linejoin="round"/><path d="M357.83 150A4.5 4.5 0 1 1 348.83 150A4.5 4.5 0 1 1 357.83 150" fill="#e8e7e1"/><path d="M357.83 150A4.5 4.5 0 1 1 348.83 150A4.5 4.5 0 1 1 357.83 150" fill="none" stroke="#1b1b1b" stroke-width="1.5" stroke-linecap="round" stroke-linejoin="round"/><text x="16" y="168" font-family="'Schibsted Grotesk', 'Noto Sans KR', sans-serif" font-weight="700" font-size="7" text-anchor="start" letter-spacing="0.84" fill="#1b1b1b">00</text><text x="200" y="168" font-family="'Schibsted Grotesk', 'Noto Sans KR', sans-serif" font-weight="700" font-size="7" text-anchor="middle" letter-spacing="0.84" fill="#1b1b1b">12</text><text x="384" y="168" font-family="'Schibsted Grotesk', 'Noto Sans KR', sans-serif" font-weight="700" font-size="7" text-anchor="end" letter-spacing="0.84" fill="#1b1b1b">24</text><path d="M16 186L384 186" fill="none" stroke="#1b1b1b" stroke-width="1" stroke-linecap="round" stroke-linejoin="round"/><text x="16" y="224" font-family="'Noto Sans KR', sans-serif" font-weight="900" font-size="26" text-anchor="start" fill="#1b1b1b">Pack your lunch sachet</text><text x="16" y="246" font-family="'Schibsted Grotesk', 'Noto Sans KR', sans-serif" font-weight="700" font-size="9" text-anchor="start" letter-spacing="1.08" fill="#c8102e">LUNCH 12:30 FALLS INSIDE</text><path d="M332.5 206.5L349.5 206.5A2 2 0 0 1 351.5 208.5L351.5 219.5A2 2 0 0 1 349.5 221.5L332.5 221.5A2 2 0 0 1 330.5 219.5L330.5 208.5A2 2 0 0 1 332.5 206.5Z" fill="none" stroke="#1b1b1b" stroke-width="1" stroke-linecap="round" stroke-linejoin="round" stroke-dasharray="1.5 2.5"/><path d="M358.5 206.5L375.5 206.5A2 2 0 0 1 377.5 208.5L377.5 219.5A2 2 0 0 1 375.5 221.5L358.5 221.5A2 2 0 0 1 356.5 219.5L356.5 208.5A2 2 0 0 1 358.5 206.5Z" fill="none" stroke="#1b1b1b" stroke-width="1" stroke-linecap="round" stroke-linejoin="round" stroke-dasharray="1.5 2.5"/><path d="M332 226L350 226A2 2 0 0 1 352 228L352 240A2 2 0 0 1 350 242L332 242A2 2 0 0 1 330 240L330 228A2 2 0 0 1 332 226Z" fill="#c8102e"/><path d="M358.5 226.5L375.5 226.5A2 2 0 0 1 377.5 228.5L377.5 239.5A2 2 0 0 1 375.5 241.5L358.5 241.5A2 2 0 0 1 356.5 239.5L356.5 228.5A2 2 0 0 1 358.5 226.5Z" fill="none" stroke="#1b1b1b" stroke-width="1" stroke-linecap="round" stroke-linejoin="round" stroke-dasharray="1.5 2.5"/></svg>