<?xml version="1.0" encoding="UTF-8"?>
<svg xmlns="http://www.w3.org/2000/svg" id="lyra-E1-next" viewBox="0 0 400 300" width="400" height="300"><rect x="0" y="0" width="400" height="300" fill="#e8e7e1"/><path d="M20.55859375 30.0V18.4921875Q19.52734375 19.5234375 18.607421875 20.1328125Q17.6875 20.7421875 16.5625 21.12890625V16.921875Q17.3359375 16.62890625 18.15625 16.1953125Q18.9765625 15.76171875 19.83203125 15.029296875Q20.6875 14.296875 21.56640625 13.125H24.73046875V30.0ZM33.9765625 30.31640625Q30.671875 30.31640625 28.87890625 28.04296875Q27.0859375 25.76953125 27.0859375 21.5625Q27.0859375 17.3671875 28.87890625 15.087890625Q30.671875 12.80859375 33.9765625 12.80859375Q37.29296875 12.80859375 39.07421875 15.087890625Q40.85546875 17.3671875 40.85546875 21.5625Q40.85546875 25.7578125 39.07421875 28.037109375Q37.29296875 30.31640625 33.9765625 30.31640625ZM33.96484375 27.046875Q35.2421875 27.046875 35.88671875 25.669921875Q36.53125 24.29296875 36.53125 21.5625Q36.53125 18.84375 35.88671875 17.466796875Q35.2421875 16.08984375 33.96484375 16.08984375Q32.6875 16.08984375 32.048828125 17.466796875Q31.41015625 18.84375 31.41015625 21.5625Q31.41015625 24.29296875 32.048828125 25.669921875Q32.6875 27.046875 33.96484375 27.046875ZM45.42578125 30.31640625Q44.20703125 30.31640625 43.48046875 29.58984375Q42.75390625 28.86328125 42.75390625 27.65625Q42.75390625 26.4375 43.48046875 25.7109375Q44.20703125 24.984375 45.42578125 24.984375Q46.6328125 24.984375 47.359375 25.7109375Q48.0859375 26.4375 48.0859375 27.65625Q48.0859375 28.86328125 47.359375 29.58984375Q46.6328125 30.31640625 45.42578125 30.31640625ZM45.42578125 22.359375Q44.20703125 22.359375 43.48046875 21.6328125Q42.75390625 20.90625 42.75390625 19.69921875Q42.75390625 18.48046875 43.48046875 17.75390625Q44.20703125 17.02734375 45.42578125 17.02734375Q46.6328125 17.02734375 47.359375 17.75390625Q48.0859375 18.48046875 48.0859375 19.69921875Q48.0859375 20.90625 47.359375 21.6328125Q46.6328125 22.359375 45.42578125 22.359375ZM50.01953125 30.0V27.50390625L56.0546875 22.69921875Q56.96875 21.9609375 57.513671875 21.31640625Q58.05859375 20.671875 58.310546875 20.00390625Q58.5625 19.3359375 58.5625 18.55078125Q58.5625 17.6015625 58.263671875 17.068359375Q57.96484375 16.53515625 57.466796875 16.318359375Q56.96875 16.1015625 56.359375 16.1015625Q55.3515625 16.1015625 54.8359375 16.546875Q54.3203125 16.9921875 54.12109375 17.642578125Q53.921875 18.29296875 53.88671875 18.9140625L49.66796875 17.77734375Q49.8671875 16.44140625 50.763671875 15.310546875Q51.66015625 14.1796875 53.107421875 13.494140625Q54.5546875 12.80859375 56.37109375 12.80859375Q57.484375 12.80859375 58.6328125 13.1015625Q59.78125 13.39453125 60.748046875 14.02734375Q61.71484375 14.66015625 62.3125 15.66796875Q62.91015625 16.67578125 62.91015625 18.08203125Q62.91015625 20.05078125 61.603515625 21.720703125Q60.296875 23.390625 57.90625 24.90234375L53.875 27.50390625L53.3828125 26.70703125H62.76953125V30.0ZM71.4296875 30.31640625Q68.125 30.31640625 66.33203125 28.04296875Q64.5390625 25.76953125 64.5390625 21.5625Q64.5390625 17.3671875 66.33203125 15.087890625Q68.125 12.80859375 71.4296875 12.80859375Q74.74609375 12.80859375 76.52734375 15.087890625Q78.30859375 17.3671875 78.30859375 21.5625Q78.30859375 25.7578125 76.52734375 28.037109375Q74.74609375 30.31640625 71.4296875 30.31640625ZM71.41796875 27.046875Q72.6953125 27.046875 73.33984375 25.669921875Q73.984375 24.29296875 73.984375 21.5625Q73.984375 18.84375 73.33984375 17.466796875Q72.6953125 16.08984375 71.41796875 16.08984375Q70.140625 16.08984375 69.501953125 17.466796875Q68.86328125 18.84375 68.86328125 21.5625Q68.86328125 24.29296875 69.501953125 25.669921875Q70.140625 27.046875 71.41796875 27.046875Z" fill="#1b1b1b" data-text="10:20"/><path d="M268.41 29.0 271.96500000000003 17.884999999999998H274.59000000000003L278.14500000000004 29.0H275.805L274.23 23.21Q273.975 22.34 273.74250000000006 21.4025Q273.51000000000005 20.465 273.25500000000005 19.58H273.19500000000005Q272.985 20.48 272.7375 21.41Q272.49 22.34 272.25 23.21L270.66 29.0ZM270.615 26.15V24.425H275.89500000000004V26.15ZM279.27000000000004 29.0V20.6H281.475V29.0ZM280.38000000000005 19.235Q279.795 19.235 279.45000000000005 18.9125Q279.105 18.59 279.105 18.035Q279.105 17.495 279.45000000000005 17.165Q279.795 16.835 280.38000000000005 16.835Q280.93500000000006 16.835 281.2950000000001 17.165Q281.65500000000003 17.495 281.65500000000003 18.035Q281.65500000000003 18.59 281.2950000000001 18.9125Q280.93500000000006 19.235 280.38000000000005 19.235ZM283.83000000000004 29.0V20.6H285.63000000000005L285.795 22.085H285.84000000000003Q286.30500000000006 21.26 286.93500000000006 20.825000000000003Q287.56500000000005 20.39 288.225 20.39Q288.58500000000004 20.39 288.8025 20.442500000000003Q289.02000000000004 20.495 289.20000000000005 20.57L288.84000000000003 22.475Q288.6 22.415 288.4125 22.377499999999998Q288.225 22.34 287.94000000000005 22.34Q287.46000000000004 22.34 286.9275 22.715Q286.39500000000004 23.09 286.035 23.990000000000002V29.0ZM296.745 32.645Q295.755 32.645 294.96000000000004 32.4125Q294.165 32.18 293.7075 31.7075Q293.25 31.235 293.25 30.485Q293.25 29.96 293.55 29.509999999999998Q293.85 29.06 294.45000000000005 28.745V28.67Q294.12 28.46 293.90250000000003 28.115000000000002Q293.685 27.77 293.685 27.245Q293.685 26.78 293.9625 26.3675Q294.24 25.955 294.615 25.685V25.625Q294.18 25.31 293.83500000000004 24.740000000000002Q293.49 24.17 293.49 23.42Q293.49 22.43 293.9625 21.755Q294.435 21.08 295.21500000000003 20.735Q295.995 20.39 296.865 20.39Q297.24 20.39 297.5625 20.45Q297.885 20.509999999999998 298.15500000000003 20.6H301.17V22.22H299.745Q299.91 22.445 300.015 22.775Q300.12 23.105 300.12 23.495Q300.12 24.44 299.685 25.0775Q299.25 25.715 298.515 26.03Q297.78000000000003 26.345 296.865 26.345Q296.64000000000004 26.345 296.355 26.2925Q296.07 26.240000000000002 295.785 26.15Q295.62 26.3 295.52250000000004 26.457500000000003Q295.425 26.615000000000002 295.425 26.885Q295.425 27.2 295.7175 27.38Q296.01 27.56 296.745 27.56H298.185Q299.70000000000005 27.56 300.51 28.0625Q301.32 28.565 301.32 29.66Q301.32 30.515 300.7575 31.1825Q300.195 31.85 299.1675 32.2475Q298.14000000000004 32.645 296.745 32.645ZM296.865 24.98Q297.24 24.98 297.54 24.8Q297.84000000000003 24.62 298.02000000000004 24.2675Q298.20000000000005 23.915 298.20000000000005 23.42Q298.20000000000005 22.925 298.02000000000004 22.5875Q297.84000000000003 22.25 297.54 22.0775Q297.24 21.905 296.865 21.905Q296.505 21.905 296.20500000000004 22.0775Q295.90500000000003 22.25 295.7325 22.5875Q295.56 22.925 295.56 23.42Q295.56 23.915 295.7325 24.2675Q295.90500000000003 24.62 296.20500000000004 24.8Q296.505 24.98 296.865 24.98ZM297.07500000000005 31.235Q297.72 31.235 298.1925 31.07Q298.665 30.905 298.93500000000006 30.634999999999998Q299.20500000000004 30.365 299.20500000000004 30.035Q299.20500000000004 29.585 298.845 29.427500000000002Q298.485 29.27 297.81 29.27H296.77500000000003Q296.40000000000003 29.27 296.13 29.247500000000002Q295.86 29.225 295.62 29.165Q295.33500000000004 29.39 295.20750000000004 29.637500000000003Q295.08000000000004 29.885 295.08000000000004 30.155Q295.08000000000004 30.665 295.62 30.95Q296.16 31.235 297.07500000000005 31.235ZM306.25500000000005 29.21Q305.20500000000004 29.21 304.2825 28.685000000000002Q303.36000000000007 28.16 302.7900000000001 27.177500000000002Q302.2200000000001 26.195 302.2200000000001 24.8Q302.2200000000001 23.405 302.7900000000001 22.4225Q303.36000000000007 21.44 304.2825 20.915Q305.20500000000004 20.39 306.25500000000005 20.39Q307.05000000000007 20.39 307.7700000000001 20.69Q308.49000000000007 20.990000000000002 309.06000000000006 21.552500000000002Q309.63000000000005 22.115000000000002 309.96000000000004 22.9325Q310.2900000000001 23.75 310.2900000000001 24.8Q310.2900000000001 26.195 309.72 27.177500000000002Q309.15000000000003 28.16 308.2275000000001 28.685000000000002Q307.30500000000006 29.21 306.25500000000005 29.21ZM306.25500000000005 27.41Q306.82500000000005 27.41 307.2225000000001 27.0875Q307.62000000000006 26.765 307.82250000000005 26.18Q308.02500000000003 25.595 308.02500000000003 24.8Q308.02500000000003 24.005 307.82250000000005 23.42Q307.62000000000006 22.835 307.2225000000001 22.512500000000003Q306.82500000000005 22.19 306.25500000000005 22.19Q305.68500000000006 22.19 305.2875 22.512500000000003Q304.89000000000004 22.835 304.68750000000006 23.42Q304.48500000000007 24.005 304.48500000000007 24.8Q304.48500000000007 25.595 304.68750000000006 26.18Q304.89000000000004 26.765 305.2875 27.0875Q305.68500000000006 27.41 306.25500000000005 27.41ZM315.64500000000004 29.21Q314.595 29.21 313.6725 28.685000000000002Q312.75000000000006 28.16 312.18000000000006 27.177500000000002Q311.61000000000007 26.195 311.61000000000007 24.8Q311.61000000000007 23.405 312.18000000000006 22.4225Q312.75000000000006 21.44 313.6725 20.915Q314.595 20.39 315.64500000000004 20.39Q316.44000000000005 20.39 317.1600000000001 20.69Q317.88000000000005 20.990000000000002 318.45000000000005 21.552500000000002Q319.02000000000004 22.115000000000002 319.35 22.9325Q319.68000000000006 23.75 319.68000000000006 24.8Q319.68000000000006 26.195 319.11 27.177500000000002Q318.54 28.16 317.61750000000006 28.685000000000002Q316.69500000000005 29.21 315.64500000000004 29.21ZM315.64500000000004 27.41Q316.21500000000003 27.41 316.61250000000007 27.0875Q317.01000000000005 26.765 317.21250000000003 26.18Q317.415 25.595 317.415 24.8Q317.415 24.005 317.21250000000003 23.42Q317.01000000000005 22.835 316.61250000000007 22.512500000000003Q316.21500000000003 22.19 315.64500000000004 22.19Q315.07500000000005 22.19 314.6775 22.512500000000003Q314.28000000000003 22.835 314.07750000000004 23.42Q313.87500000000006 24.005 313.87500000000006 24.8Q313.87500000000006 25.595 314.07750000000004 26.18Q314.28000000000003 26.765 314.6775 27.0875Q315.07500000000005 27.41 315.64500000000004 27.41ZM324.48 29.21Q323.43 29.21 322.6575 28.685000000000002Q321.88500000000005 28.16 321.46500000000003 27.17Q321.045 26.18 321.045 24.8Q321.045 23.435000000000002 321.5475 22.4525Q322.05 21.47 322.86 20.93Q323.67 20.39 324.57000000000005 20.39Q325.27500000000003 20.39 325.76250000000005 20.6375Q326.25000000000006 20.884999999999998 326.70000000000005 21.305L326.62500000000006 19.985V17.03H328.83000000000004V29.0H327.03000000000003L326.865 28.13H326.805Q326.34000000000003 28.58 325.74 28.895Q325.14000000000004 29.21 324.48 29.21ZM325.05 27.395Q325.50000000000006 27.395 325.88250000000005 27.192500000000003Q326.26500000000004 26.990000000000002 326.62500000000006 26.525V22.835Q326.25000000000006 22.490000000000002 325.8525000000001 22.3475Q325.45500000000004 22.205 325.05 22.205Q324.58500000000004 22.205 324.1875 22.4975Q323.79 22.79 323.55000000000007 23.36Q323.31000000000006 23.93 323.31000000000006 24.77Q323.31000000000006 25.64 323.51250000000005 26.225Q323.71500000000003 26.81 324.105 27.1025Q324.495 27.395 325.05 27.395Z" fill="#1b1b1b" data-text="Air good"/><path d="M346.5 24A4.5 4.5 0 1 1 337.5 24A4.5 4.5 0 1 1 346.5 24" fill="#1b1b1b"/><path d="M359.5 24A4.5 4.5 0 1 1 350.5 24A4.5 4.5 0 1 1 359.5 24" fill="none" stroke="#1b1b1b" stroke-width="1.5" stroke-linecap="round" stroke-linejoin="round"/><path d="M372.5 24A4.5 4.5 0 1 1 363.5 24A4.5 4.5 0 1 1 372.5 24" fill="none" stroke="#1b1b1b" stroke-width="1.5" stroke-linecap="round" stroke-linejoin="round"/><path d="M385.5 24A4.5 4.5 0 1 1 376.5 24A4.5 4.5 0 1 1 385.5 24" fill="none" stroke="#1b1b1b" stroke-width="1.5" stroke-linecap="round" stroke-linejoin="round"/><path d="M16 42L384 42" fill="none" stroke="#1b1b1b" stroke-width="1" stroke-linecap="round" stroke-linejoin="round"/><path d="M27 53L115 53A10 10 0 0 1 125 63L125 151A10 10 0 0 1 115 161L27 161A10 10 0 0 1 17 151L17 63A10 10 0 0 1 27 53Z" fill="none" stroke="#1b1b1b" stroke-width="1.3" stroke-linecap="round" stroke-linejoin="round" stroke-dasharray="2 5"/><path d="M145 53L233 53A10 10 0 0 1 243 63L243 151A10 10 0 0 1 233 161L145 161A10 10 0 0 1 135 151L135 63A10 10 0 0 1 145 53Z" fill="none" stroke="#1b1b1b" stroke-width="1.3" stroke-linecap="round" stroke-linejoin="round" stroke-dasharray="2 5"/><path d="M27.25 171.25L114.75 171.25A10 10 0 0 1 124.75 181.25L124.75 268.75A10 10 0 0 1 114.75 278.75L27.25 278.75A10 10 0 0 1 17.25 268.75L17.25 181.25A10 10 0 0 1 27.25 171.25Z" fill="none" stroke="#1b1b1b" stroke-width="2.5" stroke-linecap="round" stroke-linejoin="round"/><path d="M39.38 204.25L41.35 201.72L43.33 204.25L45.3 201.72L47.28 204.25L49.26 201.72L51.23 204.25L53.21 201.72L55.19 204.25L57.16 201.72L59.14 204.25L61.12 201.72L63.09 204.25L65.07 201.72L67.05 204.25L69.02 201.72L71 204.25L72.98 201.72L74.95 204.25L76.93 201.72L78.91 204.25L80.88 201.72L82.86 204.25L84.84 201.72L86.81 204.25L88.79 201.72L90.77 204.25L92.74 201.72L94.72 204.25L96.7 201.72L98.67 204.25L100.65 201.72L102.63 204.25L102.63 245.75L92.08 248.28L81.54 245.75L71 248.28L60.46 245.75L49.92 248.28L39.38 245.75Z" fill="none" stroke="#1b1b1b" stroke-width="1.77" stroke-linecap="round" stroke-linejoin="round"/><path d="M71 206.78L71 243.22" fill="none" stroke="#1b1b1b" stroke-width="1.77" stroke-linecap="round" stroke-linejoin="round" stroke-dasharray="2.5300000000000002 2.5300000000000002"/><path d="M45.07 213.38L65.31 213.38" fill="none" stroke="#1b1b1b" stroke-width="1.52" stroke-linecap="round" stroke-linejoin="round"/><path d="M45.07 219.19L57.72 219.19" fill="none" stroke="#1b1b1b" stroke-width="1.52" stroke-linecap="round" stroke-linejoin="round"/><path d="M53.04 232.47A3.54 3.54 0 1 1 45.95 232.47A3.54 3.54 0 1 1 53.04 232.47" fill="#1b1b1b"/><path d="M65.37 231.13A5.57 2.78 -22.92 1 1 55.12 235.47A5.57 2.78 -22.92 1 1 65.37 231.13Z" fill="#1b1b1b"/><path d="M76.69 213.38L96.93 213.38" fill="none" stroke="#1b1b1b" stroke-width="1.52" stroke-linecap="round" stroke-linejoin="round"/><path d="M76.69 219.19L89.34 219.19" fill="none" stroke="#1b1b1b" stroke-width="1.52" stroke-linecap="round" stroke-linejoin="round"/><path d="M84.66 232.47A3.54 3.54 0 1 1 77.58 232.47A3.54 3.54 0 1 1 84.66 232.47" fill="#1b1b1b"/><path d="M97 231.13A5.57 2.78 -22.92 1 1 86.75 235.47A5.57 2.78 -22.92 1 1 97 231.13Z" fill="#1b1b1b"/><path d="M145 171L233 171A10 10 0 0 1 243 181L243 269A10 10 0 0 1 233 279L145 279A10 10 0 0 1 135 269L135 181A10 10 0 0 1 145 171Z" fill="none" stroke="#1b1b1b" stroke-width="1.3" stroke-linecap="round" stroke-linejoin="round" stroke-dasharray="2 5"/><path d="M263.456 96.0V84.144H265.872L269.312 90.464L270.512 93.024H270.592Q270.496 92.096 270.384 90.992Q270.272 89.888 270.272 88.88V84.144H272.512V96.0H270.096L266.688 89.664L265.488 87.12H265.408Q265.488 88.08 265.6 89.152Q265.712 90.224 265.712 91.248V96.0ZM279.152 96.224Q277.904 96.224 276.89599999999996 95.664Q275.888 95.104 275.288 94.048Q274.688 92.992 274.688 91.52Q274.688 90.432 275.032 89.568Q275.376 88.704 275.976 88.088Q276.57599999999996 87.472 277.31999999999994 87.144Q278.06399999999996 86.816 278.864 86.816Q280.096 86.816 280.928 87.368Q281.76 87.92 282.18399999999997 88.888Q282.608 89.856 282.608 91.104Q282.608 91.424 282.576 91.72Q282.544 92.016 282.496 92.192H276.976Q277.072 92.912 277.408 93.408Q277.74399999999997 93.904 278.27199999999993 94.152Q278.79999999999995 94.4 279.472 94.4Q280.01599999999996 94.4 280.496 94.248Q280.976 94.096 281.472 93.792L282.272 95.232Q281.616 95.68 280.79999999999995 95.952Q279.984 96.224 279.152 96.224ZM276.928 90.608H280.592Q280.592 89.712 280.18399999999997 89.176Q279.77599999999995 88.64 278.89599999999996 88.64Q278.43199999999996 88.64 278.01599999999996 88.856Q277.59999999999997 89.072 277.312 89.512Q277.024 89.952 276.928 90.608ZM283.53599999999994 96.0 286.33599999999996 91.344 283.712 87.03999999999999H286.23999999999995L287.13599999999997 88.624Q287.328 89.008 287.52799999999996 89.392Q287.72799999999995 89.776 287.936 90.144H288.0Q288.15999999999997 89.776 288.328 89.392Q288.496 89.008 288.67199999999997 88.624L289.40799999999996 87.03999999999999H291.84L289.21599999999995 91.6L292.01599999999996 96.0H289.488L288.496 94.352Q288.28799999999995 93.952 288.072 93.56Q287.856 93.168 287.63199999999995 92.8H287.55199999999996Q287.35999999999996 93.168 287.17599999999993 93.56Q286.99199999999996 93.952 286.79999999999995 94.352L285.984 96.0ZM296.816 96.224Q295.76 96.224 295.104 95.80000000000001Q294.448 95.376 294.15999999999997 94.624Q293.872 93.872 293.872 92.88V88.896H292.608V87.152L294.0 87.03999999999999L294.272 84.624H296.20799999999997V87.03999999999999H298.432V88.896H296.20799999999997V92.864Q296.20799999999997 93.632 296.528 94.0Q296.848 94.368 297.44 94.368Q297.664 94.368 297.904 94.304Q298.144 94.24 298.32 94.176L298.71999999999997 95.888Q298.352 96.0 297.88 96.112Q297.408 96.224 296.816 96.224Z" fill="#1b1b1b" data-text="Next"/><path d="M261.8 127.0 267.575 108.375H272.925L278.7 127.0H274.0L271.675 117.7Q271.3 116.3 270.9375 114.725Q270.575 113.15 270.2 111.725H270.1Q269.775 113.175 269.4 114.7375Q269.025 116.3 268.675 117.7L266.35 127.0ZM265.725 122.725V119.275H274.725V122.725ZM281.05 127.0V112.225Q281.05 110.725 281.57500000000005 109.4625Q282.1 108.2 283.275 107.4375Q284.45 106.675 286.425 106.675Q287.375 106.675 288.1125 106.82499999999999Q288.85 106.975 289.325 107.15L288.525 110.45Q287.85 110.15 287.075 110.15Q286.35 110.15 285.925 110.5875Q285.5 111.025 285.5 112.1V127.0ZM279.15 116.25V112.95L281.325 112.775H288.025V116.25ZM295.84999999999997 127.35Q294.075 127.35 292.9625 126.63749999999999Q291.84999999999997 125.925 291.3375 124.6625Q290.825 123.4 290.825 121.725V116.25H288.9V112.95L291.09999999999997 112.775L291.59999999999997 109.0H295.275V112.775H298.625V116.25H295.275V121.675Q295.275 122.85 295.7875 123.3625Q296.3 123.875 297.075 123.875Q297.425 123.875 297.775 123.7875Q298.125 123.7 298.375 123.6L299.075 126.825Q298.525 127.0 297.73749999999995 127.175Q296.95 127.35 295.84999999999997 127.35ZM307.825 127.35Q305.775 127.35 304.1375 126.4625Q302.5 125.575 301.5375 123.9Q300.575 122.225 300.575 119.875Q300.575 118.15 301.1375 116.775Q301.7 115.4 302.6625 114.42500000000001Q303.625 113.45 304.8375 112.9375Q306.05 112.425 307.325 112.425Q309.375 112.425 310.725 113.32499999999999Q312.075 114.225 312.75 115.775Q313.425 117.325 313.425 119.275Q313.425 119.875 313.3625 120.4Q313.3 120.925 313.22499999999997 121.2H304.875Q305.075 122.175 305.575 122.775Q306.075 123.375 306.79999999999995 123.6625Q307.525 123.95 308.425 123.95Q309.2 123.95 309.92499999999995 123.725Q310.65 123.5 311.425 123.05L312.9 125.725Q311.8 126.5 310.4375 126.925Q309.075 127.35 307.825 127.35ZM304.8 118.275H309.65Q309.65 117.225 309.1375 116.525Q308.625 115.825 307.4 115.825Q306.8 115.825 306.2625 116.0875Q305.72499999999997 116.35 305.3375 116.88749999999999Q304.95 117.425 304.8 118.275ZM316.27500000000003 127.0V112.775H319.90000000000003L320.225 115.25H320.3Q321.1 113.825 322.1875 113.125Q323.27500000000003 112.425 324.35 112.425Q325.0 112.425 325.38750000000005 112.51249999999999Q325.77500000000003 112.6 326.07500000000005 112.725L325.35 116.55Q324.95000000000005 116.45 324.6 116.3875Q324.25 116.325 323.77500000000003 116.325Q323.0 116.325 322.13750000000005 116.9Q321.27500000000003 117.475 320.725 118.875V127.0Z" fill="#1b1b1b" data-text="After"/><path d="M267.85 158.35Q266.325 158.35 265.4375 157.725Q264.55 157.1 264.175 155.975Q263.8 154.85 263.8 153.375V138.025H268.25V153.525Q268.25 154.225 268.5125 154.4875Q268.775 154.75 269.025 154.75Q269.15 154.75 269.25 154.7375Q269.35 154.725 269.525 154.7L270.05 157.975Q269.7 158.125 269.15 158.2375Q268.6 158.35 267.85 158.35ZM276.40000000000003 158.35Q274.05 158.35 273.0 156.7875Q271.95 155.225 271.95 152.575V143.775H276.40000000000003V152.025Q276.40000000000003 153.475 276.8 154.0125Q277.2 154.55 278.05 154.55Q278.8 154.55 279.3375 154.2125Q279.875 153.875 280.425 153.1V143.775H284.875V158.0H281.25L280.925 156.05H280.825Q279.95 157.1 278.9 157.725Q277.85 158.35 276.40000000000003 158.35ZM288.45 158.0V143.775H292.075L292.4 145.55H292.47499999999997Q293.34999999999997 144.675 294.4625 144.05Q295.575 143.425 297.025 143.425Q299.34999999999997 143.425 300.4 144.97500000000002Q301.45 146.525 301.45 149.2V158.0H297.0V149.75Q297.0 148.275 296.6 147.75Q296.2 147.225 295.34999999999997 147.225Q294.59999999999997 147.225 294.07499999999993 147.55Q293.54999999999995 147.875 292.9 148.5V158.0ZM311.175 158.35Q309.175 158.35 307.57500000000005 157.46249999999998Q305.975 156.575 305.0375 154.89999999999998Q304.1 153.225 304.1 150.875Q304.1 148.525 305.13750000000005 146.8625Q306.175 145.2 307.88750000000005 144.3125Q309.6 143.425 311.57500000000005 143.425Q312.875 143.425 313.9 143.8375Q314.925 144.25 315.725 144.95L313.65000000000003 147.775Q313.175 147.375 312.7375 147.2Q312.3 147.025 311.85 147.025Q310.875 147.025 310.15 147.5Q309.425 147.975 309.0375 148.83749999999998Q308.65000000000003 149.7 308.65000000000003 150.875Q308.65000000000003 152.05 309.05000000000007 152.925Q309.45000000000005 153.8 310.13750000000005 154.275Q310.82500000000005 154.75 311.675 154.75Q312.35 154.75 312.975 154.4625Q313.6 154.175 314.15000000000003 153.75L315.875 156.675Q314.82500000000005 157.6 313.5625 157.975Q312.3 158.35 311.175 158.35ZM318.325 158.0V138.025H322.775V142.825L322.54999999999995 145.35Q323.325 144.625 324.3875 144.025Q325.45 143.425 326.9 143.425Q329.22499999999997 143.425 330.275 144.97500000000002Q331.325 146.525 331.325 149.2V158.0H326.875V149.75Q326.875 148.275 326.475 147.75Q326.075 147.225 325.22499999999997 147.225Q324.47499999999997 147.225 323.94999999999993 147.55Q323.42499999999995 147.875 322.775 148.5V158.0Z" fill="#1b1b1b" data-text="lunch"/><path d="M265.456 180.224Q264.672 180.224 264.072 179.88Q263.472 179.536 263.144 178.928Q262.816 178.32 262.816 177.552Q262.816 176.128 264.048 175.336Q265.28 174.544 267.968 174.256Q267.952 173.808 267.808 173.464Q267.664 173.12 267.336 172.912Q267.008 172.704 266.448 172.704Q265.824 172.704 265.216 172.94400000000002Q264.608 173.184 263.984 173.568L263.152 172.0Q263.68 171.664 264.272 171.408Q264.864 171.152 265.52 170.98399999999998Q266.176 170.816 266.88 170.816Q268.016 170.816 268.784 171.264Q269.552 171.712 269.93600000000004 172.59199999999998Q270.32 173.472 270.32 174.768V180.0H268.4L268.24 179.04H268.16Q267.584 179.552 266.91200000000003 179.88799999999998Q266.24 180.224 265.456 180.224ZM266.24 178.384Q266.736 178.384 267.144 178.152Q267.552 177.92 267.968 177.504V175.712Q266.88 175.84 266.24 176.07999999999998Q265.6 176.32 265.328 176.648Q265.056 176.976 265.056 177.376Q265.056 177.904 265.384 178.144Q265.712 178.384 266.24 178.384ZM272.72 180.0V171.04H274.64000000000004L274.81600000000003 172.624H274.86400000000003Q275.36 171.744 276.03200000000004 171.28Q276.704 170.816 277.408 170.816Q277.79200000000003 170.816 278.024 170.872Q278.25600000000003 170.928 278.44800000000004 171.008L278.064 173.04Q277.808 172.976 277.608 172.93599999999998Q277.408 172.896 277.10400000000004 172.896Q276.59200000000004 172.896 276.024 173.296Q275.456 173.696 275.072 174.656V180.0ZM283.45599999999996 180.224Q282.33599999999996 180.224 281.352 179.664Q280.368 179.104 279.76 178.056Q279.152 177.008 279.152 175.52Q279.152 174.032 279.76 172.984Q280.368 171.936 281.352 171.376Q282.33599999999996 170.816 283.45599999999996 170.816Q284.304 170.816 285.072 171.136Q285.84 171.456 286.448 172.05599999999998Q287.056 172.656 287.408 173.52800000000002Q287.76 174.4 287.76 175.52Q287.76 177.008 287.152 178.056Q286.544 179.104 285.55999999999995 179.664Q284.57599999999996 180.224 283.45599999999996 180.224ZM283.45599999999996 178.304Q284.06399999999996 178.304 284.48799999999994 177.96Q284.912 177.616 285.128 176.99200000000002Q285.344 176.368 285.344 175.52Q285.344 174.672 285.128 174.048Q284.912 173.424 284.48799999999994 173.07999999999998Q284.06399999999996 172.736 283.45599999999996 172.736Q282.84799999999996 172.736 282.424 173.07999999999998Q282.0 173.424 281.784 174.048Q281.568 174.672 281.568 175.52Q281.568 176.368 281.784 176.99200000000002Q282.0 177.616 282.424 177.96Q282.84799999999996 178.304 283.45599999999996 178.304ZM292.4 180.224Q290.944 180.224 290.288 179.272Q289.632 178.32 289.632 176.624V171.04H291.968V176.336Q291.968 177.376 292.27200000000005 177.792Q292.576 178.208 293.248 178.208Q293.792 178.208 294.2 177.94400000000002Q294.608 177.68 295.056 177.088V171.04H297.408V180.0H295.488L295.312 178.704H295.248Q294.672 179.392 294.0 179.808Q293.328 180.224 292.4 180.224ZM299.92 180.0V171.04H301.84000000000003L302.016 172.224H302.064Q302.656 171.648 303.36 171.232Q304.064 170.816 304.976 170.816Q306.432 170.816 307.088 171.768Q307.744 172.72 307.744 174.416V180.0H305.392V174.704Q305.392 173.664 305.096 173.248Q304.8 172.832 304.128 172.832Q303.584 172.832 303.17600000000004 173.088Q302.76800000000003 173.344 302.272 173.84V180.0ZM313.328 180.224Q312.20799999999997 180.224 311.384 179.664Q310.56 179.104 310.11199999999997 178.048Q309.664 176.992 309.664 175.52Q309.664 174.064 310.2 173.016Q310.736 171.968 311.6 171.392Q312.464 170.816 313.424 170.816Q314.176 170.816 314.69599999999997 171.07999999999998Q315.21599999999995 171.344 315.69599999999997 171.792L315.616 170.38400000000001V167.232H317.96799999999996V180.0H316.048L315.87199999999996 179.072H315.808Q315.31199999999995 179.552 314.67199999999997 179.88799999999998Q314.032 180.224 313.328 180.224ZM313.936 178.288Q314.416 178.288 314.82399999999996 178.072Q315.23199999999997 177.856 315.616 177.36V173.424Q315.21599999999995 173.056 314.792 172.904Q314.368 172.752 313.936 172.752Q313.44 172.752 313.01599999999996 173.06400000000002Q312.592 173.376 312.336 173.984Q312.08 174.592 312.08 175.488Q312.08 176.416 312.296 177.04Q312.512 177.664 312.928 177.976Q313.344 178.288 313.936 178.288ZM324.16 180.0V178.08H326.72V170.608H324.56V169.136Q325.456 168.976 326.10400000000004 168.744Q326.752 168.512 327.312 168.144H329.05600000000004V178.08H331.28000000000003V180.0ZM332.976 180.0V178.64Q334.592 177.2 335.736 175.968Q336.88 174.736 337.488 173.672Q338.096 172.608 338.096 171.696Q338.096 171.12 337.88800000000003 170.688Q337.68 170.256 337.288 170.024Q336.896 169.792 336.32 169.792Q335.68 169.792 335.144 170.152Q334.608 170.512 334.16 171.008L332.848 169.744Q333.68 168.848 334.552 168.392Q335.42400000000004 167.936 336.624 167.936Q337.744 167.936 338.58400000000006 168.392Q339.42400000000004 168.848 339.88800000000003 169.664Q340.35200000000003 170.48 340.35200000000003 171.584Q340.35200000000003 172.656 339.81600000000003 173.768Q339.28000000000003 174.88 338.384 175.98399999999998Q337.488 177.088 336.40000000000003 178.16Q336.86400000000003 178.096 337.40000000000003 178.05599999999998Q337.93600000000004 178.016 338.35200000000003 178.016H340.91200000000003V180.0ZM344.336 174.144Q343.696 174.144 343.28000000000003 173.704Q342.86400000000003 173.264 342.86400000000003 172.624Q342.86400000000003 171.952 343.28000000000003 171.51999999999998Q343.696 171.088 344.336 171.088Q344.96000000000004 171.088 345.37600000000003 171.51999999999998Q345.79200000000003 171.952 345.79200000000003 172.624Q345.79200000000003 173.264 345.37600000000003 173.704Q344.96000000000004 174.144 344.336 174.144ZM344.336 180.224Q343.696 180.224 343.28000000000003 179.776Q342.86400000000003 179.328 342.86400000000003 178.688Q342.86400000000003 178.016 343.28000000000003 177.584Q343.696 177.152 344.336 177.152Q344.96000000000004 177.152 345.37600000000003 177.584Q345.79200000000003 178.016 345.79200000000003 178.688Q345.79200000000003 179.328 345.37600000000003 179.776Q344.96000000000004 180.224 344.336 180.224ZM351.296 180.224Q350.368 180.224 349.632 180.00799999999998Q348.896 179.792 348.328 179.416Q347.76 179.04 347.344 178.576L348.448 177.088Q348.992 177.584 349.64 177.94400000000002Q350.288 178.304 351.088 178.304Q351.69599999999997 178.304 352.152 178.112Q352.608 177.92 352.856 177.552Q353.104 177.184 353.104 176.656Q353.104 176.064 352.82399999999996 175.64Q352.544 175.216 351.84000000000003 174.99200000000002Q351.136 174.768 349.856 174.768V173.072Q350.944 173.072 351.568 172.84Q352.192 172.608 352.456 172.2Q352.71999999999997 171.792 352.71999999999997 171.264Q352.71999999999997 170.576 352.304 170.184Q351.888 169.792 351.136 169.792Q350.512 169.792 349.976 170.072Q349.44 170.352 348.912 170.832L347.69599999999997 169.376Q348.48 168.72 349.344 168.328Q350.20799999999997 167.936 351.248 167.936Q352.384 167.936 353.256 168.304Q354.128 168.672 354.608 169.376Q355.088 170.08 355.088 171.088Q355.088 172.048 354.576 172.736Q354.064 173.424 353.12 173.792V173.872Q353.776 174.048 354.312 174.44Q354.848 174.832 355.15999999999997 175.42399999999998Q355.472 176.016 355.472 176.8Q355.472 177.872 354.904 178.64Q354.336 179.408 353.384 179.81599999999997Q352.432 180.224 351.296 180.224ZM361.088 180.224Q359.888 180.224 358.984 179.528Q358.08 178.832 357.576 177.44799999999998Q357.072 176.064 357.072 174.016Q357.072 171.984 357.576 170.632Q358.08 169.28 358.984 168.608Q359.888 167.936 361.088 167.936Q362.304 167.936 363.2 168.61599999999999Q364.096 169.296 364.6 170.64Q365.104 171.984 365.104 174.016Q365.104 176.064 364.6 177.44799999999998Q364.096 178.832 363.2 179.528Q362.304 180.224 361.088 180.224ZM361.088 178.384Q361.616 178.384 362.01599999999996 177.98399999999998Q362.416 177.584 362.64 176.632Q362.864 175.68 362.864 174.016Q362.864 172.368 362.64 171.43200000000002Q362.416 170.496 362.01599999999996 170.12Q361.616 169.744 361.088 169.744Q360.592 169.744 360.18399999999997 170.12Q359.776 170.496 359.536 171.43200000000002Q359.296 172.368 359.296 174.016Q359.296 175.68 359.536 176.632Q359.776 177.584 360.18399999999997 177.98399999999998Q360.592 178.384 361.088 178.384Z" fill="#1b1b1b" data-text="around 12:30"/><path d="M263.274 282.0V271.626H265.57L267.334 276.498Q267.502 276.96 267.656 277.471Q267.81 277.982 267.964 278.472H268.034Q268.202 277.982 268.356 277.471Q268.51 276.96 268.65 276.498L270.386 271.626H272.682V282.0H270.792V277.674Q270.792 277.17 270.83399999999995 276.568Q270.876 275.966 270.93899999999996 275.35699999999997Q271.002 274.748 271.058 274.272H271.002L270.148 276.708L268.552 281.062H267.362L265.752 276.708L264.926 274.272H264.87Q264.926 274.748 264.98199999999997 275.35699999999997Q265.038 275.966 265.087 276.568Q265.136 277.17 265.136 277.674V282.0ZM278.324 282.196Q277.344 282.196 276.483 281.706Q275.622 281.216 275.09000000000003 280.299Q274.558 279.382 274.558 278.08Q274.558 276.778 275.09000000000003 275.861Q275.622 274.944 276.483 274.454Q277.344 273.964 278.324 273.964Q279.06600000000003 273.964 279.73800000000006 274.244Q280.41 274.524 280.942 275.049Q281.474 275.574 281.78200000000004 276.337Q282.09000000000003 277.1 282.09000000000003 278.08Q282.09000000000003 279.382 281.558 280.299Q281.026 281.216 280.165 281.706Q279.30400000000003 282.196 278.324 282.196ZM278.324 280.516Q278.856 280.516 279.227 280.21500000000003Q279.598 279.914 279.78700000000003 279.368Q279.976 278.822 279.976 278.08Q279.976 277.338 279.78700000000003 276.79200000000003Q279.598 276.246 279.227 275.945Q278.856 275.644 278.324 275.644Q277.79200000000003 275.644 277.42100000000005 275.945Q277.05 276.246 276.861 276.79200000000003Q276.672 277.338 276.672 278.08Q276.672 278.822 276.861 279.368Q277.05 279.914 277.42100000000005 280.21500000000003Q277.79200000000003 280.516 278.324 280.516ZM283.812 282.0V274.16H285.492L285.646 275.546H285.68800000000005Q286.122 274.776 286.71000000000004 274.37Q287.298 273.964 287.91400000000004 273.964Q288.25 273.964 288.453 274.01300000000003Q288.656 274.062 288.824 274.132L288.488 275.91Q288.264 275.854 288.08900000000006 275.81899999999996Q287.91400000000004 275.784 287.648 275.784Q287.20000000000005 275.784 286.70300000000003 276.134Q286.206 276.484 285.87 277.324V282.0ZM289.93 282.0V274.16H291.61L291.764 275.196H291.80600000000004Q292.324 274.692 292.94000000000005 274.328Q293.55600000000004 273.964 294.354 273.964Q295.628 273.964 296.202 274.797Q296.776 275.63 296.776 277.114V282.0H294.718V277.366Q294.718 276.456 294.459 276.092Q294.2 275.728 293.612 275.728Q293.136 275.728 292.779 275.952Q292.422 276.176 291.988 276.61V282.0ZM298.904 282.0V274.16H300.962V282.0ZM299.94 272.886Q299.394 272.886 299.072 272.58500000000004Q298.75 272.284 298.75 271.766Q298.75 271.262 299.072 270.954Q299.394 270.646 299.94 270.646Q300.458 270.646 300.794 270.954Q301.13 271.262 301.13 271.766Q301.13 272.284 300.794 272.58500000000004Q300.458 272.886 299.94 272.886ZM303.15999999999997 282.0V274.16H304.84L304.99399999999997 275.196H305.036Q305.554 274.692 306.16999999999996 274.328Q306.786 273.964 307.58399999999995 273.964Q308.85799999999995 273.964 309.43199999999996 274.797Q310.006 275.63 310.006 277.114V282.0H307.948V277.366Q307.948 276.456 307.68899999999996 276.092Q307.42999999999995 275.728 306.842 275.728Q306.366 275.728 306.009 275.952Q305.652 276.176 305.21799999999996 276.61V282.0ZM314.892 285.402Q313.968 285.402 313.226 285.185Q312.48400000000004 284.968 312.057 284.52700000000004Q311.63 284.086 311.63 283.386Q311.63 282.896 311.90999999999997 282.476Q312.19 282.056 312.75 281.762V281.692Q312.442 281.496 312.23900000000003 281.174Q312.036 280.852 312.036 280.362Q312.036 279.928 312.295 279.543Q312.55400000000003 279.158 312.904 278.906V278.85Q312.49800000000005 278.556 312.17600000000004 278.024Q311.85400000000004 277.492 311.85400000000004 276.792Q311.85400000000004 275.868 312.2950000000001 275.238Q312.73600000000005 274.608 313.46400000000006 274.286Q314.192 273.964 315.004 273.964Q315.35400000000004 273.964 315.65500000000003 274.02Q315.956 274.076 316.208 274.16H319.02200000000005V275.672H317.692Q317.846 275.882 317.944 276.19Q318.04200000000003 276.498 318.04200000000003 276.862Q318.04200000000003 277.744 317.636 278.33900000000006Q317.23 278.934 316.544 279.228Q315.858 279.522 315.004 279.522Q314.79400000000004 279.522 314.528 279.47299999999996Q314.262 279.424 313.99600000000004 279.34Q313.84200000000004 279.48 313.75100000000003 279.627Q313.66 279.774 313.66 280.026Q313.66 280.32 313.933 280.488Q314.206 280.656 314.892 280.656H316.23600000000005Q317.65000000000003 280.656 318.40600000000006 281.125Q319.16200000000003 281.594 319.16200000000003 282.616Q319.16200000000003 283.414 318.63700000000006 284.03700000000003Q318.112 284.66 317.153 285.031Q316.194 285.402 314.892 285.402ZM315.004 278.248Q315.35400000000004 278.248 315.634 278.08Q315.91400000000004 277.912 316.082 277.58299999999997Q316.25 277.254 316.25 276.792Q316.25 276.33 316.082 276.015Q315.91400000000004 275.7 315.634 275.539Q315.35400000000004 275.378 315.004 275.378Q314.668 275.378 314.38800000000003 275.539Q314.108 275.7 313.947 276.015Q313.786 276.33 313.786 276.792Q313.786 277.254 313.947 277.58299999999997Q314.108 277.912 314.38800000000003 278.08Q314.668 278.248 315.004 278.248ZM315.20000000000005 284.086Q315.802 284.086 316.24300000000005 283.932Q316.684 283.778 316.93600000000004 283.526Q317.18800000000005 283.274 317.18800000000005 282.966Q317.18800000000005 282.546 316.85200000000003 282.399Q316.516 282.252 315.886 282.252H314.92Q314.57 282.252 314.318 282.231Q314.06600000000003 282.21 313.84200000000004 282.154Q313.576 282.364 313.457 282.595Q313.338 282.826 313.338 283.078Q313.338 283.554 313.842 283.82Q314.346 284.086 315.20000000000005 284.086ZM325.12600000000003 282.322Q324.80400000000003 281.426 324.433 280.635Q324.062 279.844 323.62800000000004 279.102Q323.194 278.36 322.648 277.59L323.964 276.722Q324.622 277.688 325.112 278.717Q325.60200000000003 279.746 325.994 280.754H326.05Q326.47 279.326 327.05100000000004 277.961Q327.632 276.596 328.32500000000005 275.34299999999996Q329.01800000000003 274.09 329.809 273.012Q330.6 271.934 331.44 271.094L332.714 272.214Q331.594 273.264 330.544 274.706Q329.494 276.148 328.605 277.98900000000003Q327.716 279.83 327.086 282.084ZM339.994 282.196Q339.00000000000006 282.196 338.216 281.846Q337.432 281.496 336.97700000000003 280.866Q336.52200000000005 280.236 336.52200000000005 279.424Q336.52200000000005 278.752 336.76700000000005 278.241Q337.01200000000006 277.73 337.418 277.352Q337.824 276.974 338.3 276.722V276.652Q337.71200000000005 276.232 337.32000000000005 275.62300000000005Q336.92800000000005 275.014 336.92800000000005 274.202Q336.92800000000005 273.362 337.33400000000006 272.746Q337.74 272.13 338.447 271.794Q339.15400000000005 271.458 340.05 271.458Q340.97400000000005 271.458 341.6460000000001 271.80100000000004Q342.31800000000004 272.144 342.6890000000001 272.76Q343.06000000000006 273.376 343.06000000000006 274.216Q343.06000000000006 274.72 342.87100000000004 275.168Q342.682 275.616 342.38100000000003 275.97299999999996Q342.08000000000004 276.33 341.73 276.582V276.652Q342.22 276.904 342.612 277.28200000000004Q343.004 277.66 343.242 278.185Q343.48 278.71 343.48 279.424Q343.48 280.208 343.039 280.838Q342.598 281.468 341.814 281.832Q341.03000000000003 282.196 339.994 282.196ZM340.63800000000003 276.078Q341.016 275.672 341.19800000000004 275.238Q341.38000000000005 274.804 341.38000000000005 274.342Q341.38000000000005 273.922 341.21900000000005 273.593Q341.05800000000005 273.264 340.75 273.082Q340.442 272.9 340.00800000000004 272.9Q339.47600000000006 272.9 339.1120000000001 273.236Q338.74800000000005 273.572 338.74800000000005 274.202Q338.74800000000005 274.678 338.99300000000005 275.02099999999996Q339.23800000000006 275.364 339.672 275.609Q340.10600000000005 275.854 340.63800000000003 276.078ZM340.03600000000006 280.74Q340.48400000000004 280.74 340.827 280.579Q341.17 280.418 341.366 280.103Q341.562 279.788 341.562 279.354Q341.562 278.948 341.38700000000006 278.647Q341.21200000000005 278.346 340.90400000000005 278.115Q340.59600000000006 277.884 340.17600000000004 277.688Q339.75600000000003 277.492 339.252 277.268Q338.83200000000005 277.618 338.56600000000003 278.115Q338.3 278.612 338.3 279.2Q338.3 279.662 338.53100000000006 280.005Q338.76200000000006 280.348 339.15400000000005 280.544Q339.54600000000005 280.74 340.03600000000006 280.74ZM346.406 276.876Q345.846 276.876 345.482 276.491Q345.11800000000005 276.106 345.11800000000005 275.546Q345.11800000000005 274.958 345.482 274.58000000000004Q345.846 274.202 346.406 274.202Q346.952 274.202 347.31600000000003 274.58000000000004Q347.68 274.958 347.68 275.546Q347.68 276.106 347.31600000000003 276.491Q346.952 276.876 346.406 276.876ZM346.406 282.196Q345.846 282.196 345.482 281.804Q345.11800000000005 281.412 345.11800000000005 280.852Q345.11800000000005 280.264 345.482 279.88599999999997Q345.846 279.508 346.406 279.508Q346.952 279.508 347.31600000000003 279.88599999999997Q347.68 280.264 347.68 280.852Q347.68 281.412 347.31600000000003 281.804Q346.952 282.196 346.406 282.196ZM353.392 282.0V275.63Q353.392 275.182 353.41999999999996 274.55899999999997Q353.448 273.936 353.476 273.474H353.406Q353.224 273.894 353.014 274.31399999999996Q352.804 274.734 352.58 275.168L350.96999999999997 277.744H356.542V279.312H348.96799999999996V277.912L352.832 271.626H355.31V282.0ZM358.08200000000005 282.0V280.32H360.322V273.782H358.432V272.494Q359.216 272.354 359.783 272.15099999999995Q360.35 271.948 360.84000000000003 271.626H362.36600000000004V280.32H364.312V282.0Z" fill="#1b1b1b" data-text="Morning ✓ 8:41"/></svg>