<?xml version="1.0" encoding="UTF-8"?>
<svg xmlns="http://www.w3.org/2000/svg" id="lyra-O7-missed" viewBox="0 0 400 300" width="400" height="300"><rect x="0" y="0" width="400" height="300" fill="#e8e7e1"/><path d="M4 8L12 8" fill="none" stroke="#1b1b1b" stroke-width="1" stroke-linecap="round" stroke-linejoin="round"/><path d="M8 4L8 12" fill="none" stroke="#1b1b1b" stroke-width="1" stroke-linecap="round" stroke-linejoin="round"/><path d="M388 8L396 8" fill="none" stroke="#1b1b1b" stroke-width="1" stroke-linecap="round" stroke-linejoin="round"/><path d="M392 4L392 12" fill="none" stroke="#1b1b1b" stroke-width="1" stroke-linecap="round" stroke-linejoin="round"/><path d="M4 292L12 292" fill="none" stroke="#1b1b1b" stroke-width="1" stroke-linecap="round" stroke-linejoin="round"/><path d="M8 288L8 296" fill="none" stroke="#1b1b1b" stroke-width="1" stroke-linecap="round" stroke-linejoin="round"/><path d="M388 292L396 292" fill="none" stroke="#1b1b1b" stroke-width="1" stroke-linecap="round" stroke-linejoin="round"/><path d="M392 288L392 296" fill="none" stroke="#1b1b1b" stroke-width="1" stroke-linecap="round" stroke-linejoin="round"/><text x="16" y="26" font-family="'Schibsted Grotesk', 'Noto Sans KR', sans-serif" font-weight="800" font-size="22" text-anchor="start" fill="#1b1b1b">21:31</text><text x="86" y="24" font-family="'Schibsted Grotesk', 'Noto Sans KR', sans-serif" font-weight="700" font-size="8.5" text-anchor="start" letter-spacing="1.02" fill="#1b1b1b">9월 26일 토</text><text x="318" y="24" font-family="'Schibsted Grotesk', 'Noto Sans KR', sans-serif" font-weight="700" font-size="8.5" text-anchor="end" letter-spacing="1.02" fill="#1b1b1b">24° · 미세먼지</text><path d="M325.5 16L334.5 16A1.5 1.5 0 0 1 336 17.5L336 22.5A1.5 1.5 0 0 1 334.5 24L325.5 24A1.5 1.5 0 0 1 324 22.5L324 17.5A1.5 1.5 0 0 1 325.5 16Z" fill="#1b1b1b"/><path d="M340.5 16L349.5 16A1.5 1.5 0 0 1 351 17.5L351 22.5A1.5 1.5 0 0 1 349.5 24L340.5 24A1.5 1.5 0 0 1 339 22.5L339 17.5A1.5 1.5 0 0 1 340.5 16Z" fill="none" stroke="#1b1b1b" stroke-width="1" stroke-linecap="round" stroke-linejoin="round"/><path d="M355.5 16L364.5 16A1.5 1.5 0 0 1 366 17.5L366 22.5A1.5 1.5 0 0 1 364.5 24L355.5 24A1.5 1.5 0 0 1 354 22.5L354 17.5A1.5 1.5 0 0 1 355.5 16Z" fill="none" stroke="#1b1b1b" stroke-width="1" stroke-linecap="round" stroke-linejoin="round"/><path d="M370.5 16L379.5 16A1.5 1.5 0 0 1 381 17.5L381 22.5A1.5 1.5 0 0 1 379.5 24L370.5 24A1.5 1.5 0 0 1 369 22.5L369 17.5A1.5 1.5 0 0 1 370.5 16Z" fill="none" stroke="#1b1b1b" stroke-width="1" stroke-linecap="round" stroke-linejoin="round"/><path d="M20.75 36.75L98.25 36.75A4 4 0 0 1 102.25 40.75L102.25 118.25A4 4 0 0 1 98.25 122.25L20.75 122.25A4 4 0 0 1 16.75 118.25L16.75 40.75A4 4 0 0 1 20.75 36.75Z" fill="none" stroke="#1b1b1b" stroke-width="1.5" stroke-linecap="round" stroke-linejoin="round"/><path d="M45.09 76.44L61.1 76.44A3.2 3.2 0 0 1 64.3 79.64L64.3 97.25A3.2 3.2 0 0 1 61.1 100.45L45.09 100.45A3.2 3.2 0 0 1 41.89 97.25L41.89 79.64A3.2 3.2 0 0 1 45.09 76.44Z" fill="none" stroke="#1b1b1b" stroke-width="1.6" stroke-linecap="round" stroke-linejoin="round"/><path d="M45.49 68.43L60.7 68.43A1.2 1.2 0 0 1 61.9 69.63L61.9 75.24A1.2 1.2 0 0 1 60.7 76.44L45.49 76.44A1.2 1.2 0 0 1 44.29 75.24L44.29 69.63A1.2 1.2 0 0 1 45.49 68.43Z" fill="none" stroke="#1b1b1b" stroke-width="1.6" stroke-linecap="round" stroke-linejoin="round"/><path d="M47.81 70.03L47.81 74.84" fill="none" stroke="#1b1b1b" stroke-width="1.6" stroke-linecap="round" stroke-linejoin="round"/><path d="M51.34 70.03L51.34 74.84" fill="none" stroke="#1b1b1b" stroke-width="1.6" stroke-linecap="round" stroke-linejoin="round"/><path d="M54.86 70.03L54.86 74.84" fill="none" stroke="#1b1b1b" stroke-width="1.6" stroke-linecap="round" stroke-linejoin="round"/><path d="M58.38 70.03L58.38 74.84" fill="none" stroke="#1b1b1b" stroke-width="1.6" stroke-linecap="round" stroke-linejoin="round"/><path d="M41.89 84.12L64.3 84.12" fill="none" stroke="#1b1b1b" stroke-width="1.6" stroke-linecap="round" stroke-linejoin="round"/><path d="M41.89 93.25L64.3 93.25" fill="none" stroke="#1b1b1b" stroke-width="1.6" stroke-linecap="round" stroke-linejoin="round"/><path d="M-3.8 -3L3.8 -3A3 3 0 0 1 6.8 0L6.8 0A3 3 0 0 1 3.8 3L-3.8 3A3 3 0 0 1 -6.8 0L-6.8 0A3 3 0 0 1 -3.8 -3Z" fill="none" stroke="#1b1b1b" stroke-width="1.6" stroke-linecap="round" stroke-linejoin="round" transform="matrix(0.83 -0.56 0.56 0.83 73.91 93.25)"/><path d="M0 -3L3.8 -3L3.8 -3A3 3 0 0 1 3.8 3L0 3Z" fill="#1b1b1b" transform="matrix(0.83 -0.56 0.56 0.83 73.91 93.25)"/><text x="23" y="49" font-family="'Schibsted Grotesk', 'Noto Sans KR', sans-serif" font-weight="700" font-size="7.5" text-anchor="start" letter-spacing="0.9" fill="#1b1b1b">뒤 왼쪽</text><path d="M113.5 36.5L191.5 36.5A4 4 0 0 1 195.5 40.5L195.5 118.5A4 4 0 0 1 191.5 122.5L113.5 122.5A4 4 0 0 1 109.5 118.5L109.5 40.5A4 4 0 0 1 113.5 36.5Z" fill="none" stroke="#1b1b1b" stroke-width="1" stroke-linecap="round" stroke-linejoin="round" stroke-dasharray="1.5 3"/><path d="M136.53 68.4L168.47 68.4A2.82 2.82 0 0 1 171.29 71.22L171.29 91.26A2.82 2.82 0 0 1 168.47 94.08L136.53 94.08A2.82 2.82 0 0 1 133.71 91.26L133.71 71.22A2.82 2.82 0 0 1 136.53 68.4Z" fill="none" stroke="#8f8d86" stroke-width="1.6" stroke-linecap="round" stroke-linejoin="round"/><path d="M142.38 76.1A2.66 3.76 0 1 1 137.06 76.1A2.66 3.76 0 1 1 142.38 76.1Z" fill="none" stroke="#8f8d86" stroke-width="1.6" stroke-linecap="round" stroke-linejoin="round"/><path d="M140.97 76.57A1.25 2.04 0 1 1 138.47 76.57A1.25 2.04 0 1 1 140.97 76.57Z" fill="#8f8d86"/><path d="M150.88 76.1A2.66 3.76 0 1 1 145.55 76.1A2.66 3.76 0 1 1 150.88 76.1Z" fill="none" stroke="#8f8d86" stroke-width="1.6" stroke-linecap="round" stroke-linejoin="round"/><path d="M149.47 76.57A1.25 2.04 0 1 1 146.96 76.57A1.25 2.04 0 1 1 149.47 76.57Z" fill="#8f8d86"/><path d="M159.37 76.1A2.66 3.76 0 1 1 154.05 76.1A2.66 3.76 0 1 1 159.37 76.1Z" fill="none" stroke="#8f8d86" stroke-width="1.6" stroke-linecap="round" stroke-linejoin="round"/><path d="M157.96 76.57A1.25 2.04 0 1 1 155.46 76.57A1.25 2.04 0 1 1 157.96 76.57Z" fill="#8f8d86"/><path d="M167.87 76.1A2.66 3.76 0 1 1 162.54 76.1A2.66 3.76 0 1 1 167.87 76.1Z" fill="none" stroke="#8f8d86" stroke-width="1.6" stroke-linecap="round" stroke-linejoin="round"/><path d="M166.46 76.57A1.25 2.04 0 1 1 163.95 76.57A1.25 2.04 0 1 1 166.46 76.57Z" fill="#8f8d86"/><path d="M142.38 86.38A2.66 3.76 0 1 1 137.06 86.38A2.66 3.76 0 1 1 142.38 86.38Z" fill="none" stroke="#8f8d86" stroke-width="1.6" stroke-linecap="round" stroke-linejoin="round"/><path d="M140.97 86.85A1.25 2.04 0 1 1 138.47 86.85A1.25 2.04 0 1 1 140.97 86.85Z" fill="#8f8d86"/><path d="M150.88 86.38A2.66 3.76 0 1 1 145.55 86.38A2.66 3.76 0 1 1 150.88 86.38Z" fill="none" stroke="#8f8d86" stroke-width="1.6" stroke-linecap="round" stroke-linejoin="round"/><path d="M149.47 86.85A1.25 2.04 0 1 1 146.96 86.85A1.25 2.04 0 1 1 149.47 86.85Z" fill="#8f8d86"/><path d="M159.37 86.38A2.66 3.76 0 1 1 154.05 86.38A2.66 3.76 0 1 1 159.37 86.38Z" fill="none" stroke="#8f8d86" stroke-width="1.6" stroke-linecap="round" stroke-linejoin="round"/><path d="M157.96 86.85A1.25 2.04 0 1 1 155.46 86.85A1.25 2.04 0 1 1 157.96 86.85Z" fill="#8f8d86"/><path d="M167.87 86.38A2.66 3.76 0 1 1 162.54 86.38A2.66 3.76 0 1 1 167.87 86.38Z" fill="none" stroke="#8f8d86" stroke-width="1.6" stroke-linecap="round" stroke-linejoin="round" stroke-dasharray="1.0962 1.2528000000000001"/><text x="116" y="49" font-family="'Schibsted Grotesk', 'Noto Sans KR', sans-serif" font-weight="700" font-size="7.5" text-anchor="start" letter-spacing="0.9" fill="#8f8d86">뒤 오른쪽</text><path d="M20.5 129.5L98.5 129.5A4 4 0 0 1 102.5 133.5L102.5 211.5A4 4 0 0 1 98.5 215.5L20.5 215.5A4 4 0 0 1 16.5 211.5L16.5 133.5A4 4 0 0 1 20.5 129.5Z" fill="none" stroke="#1b1b1b" stroke-width="1" stroke-linecap="round" stroke-linejoin="round" stroke-dasharray="1.5 3"/><path d="M39.92 161.4L41.15 159.83L42.37 161.4L43.6 159.83L44.82 161.4L46.04 159.83L47.27 161.4L48.49 159.83L49.71 161.4L50.94 159.83L52.16 161.4L53.38 159.83L54.61 161.4L55.83 159.83L57.05 161.4L58.28 159.83L59.5 161.4L60.72 159.83L61.95 161.4L63.17 159.83L64.39 161.4L65.62 159.83L66.84 161.4L68.06 159.83L69.29 161.4L70.51 159.83L71.73 161.4L72.96 159.83L74.18 161.4L75.4 159.83L76.63 161.4L77.85 159.83L79.07 161.4L79.07 187.08L72.55 188.65L66.02 187.08L59.5 188.65L52.97 187.08L46.45 188.65L39.92 187.08Z" fill="none" stroke="#8f8d86" stroke-width="1.6" stroke-linecap="round" stroke-linejoin="round"/><path d="M59.5 162.96L59.5 185.52" fill="none" stroke="#8f8d86" stroke-width="1.6" stroke-linecap="round" stroke-linejoin="round" stroke-dasharray="1.566 1.566"/><path d="M43.45 167.05L55.98 167.05" fill="none" stroke="#8f8d86" stroke-width="1.4" stroke-linecap="round" stroke-linejoin="round"/><path d="M43.45 170.64L51.28 170.64" fill="none" stroke="#8f8d86" stroke-width="1.4" stroke-linecap="round" stroke-linejoin="round"/><path d="M48.38 178.86A2.19 2.19 0 1 1 44 178.86A2.19 2.19 0 1 1 48.38 178.86" fill="#8f8d86"/><path d="M56.02 178.03A3.45 1.72 -22.92 1 1 49.67 180.72A3.45 1.72 -22.92 1 1 56.02 178.03Z" fill="#8f8d86"/><path d="M63.02 167.05L75.55 167.05" fill="none" stroke="#8f8d86" stroke-width="1.4" stroke-linecap="round" stroke-linejoin="round"/><path d="M63.02 170.64L70.85 170.64" fill="none" stroke="#8f8d86" stroke-width="1.4" stroke-linecap="round" stroke-linejoin="round"/><path d="M67.96 178.86A2.19 2.19 0 1 1 63.57 178.86A2.19 2.19 0 1 1 67.96 178.86" fill="#8f8d86"/><path d="M75.59 178.03A3.45 1.72 -22.92 1 1 69.25 180.72A3.45 1.72 -22.92 1 1 75.59 178.03Z" fill="#8f8d86"/><text x="23" y="142" font-family="'Schibsted Grotesk', 'Noto Sans KR', sans-serif" font-weight="700" font-size="7.5" text-anchor="start" letter-spacing="0.9" fill="#8f8d86">앞 왼쪽</text><path d="M113.75 129.75L191.25 129.75A4 4 0 0 1 195.25 133.75L195.25 211.25A4 4 0 0 1 191.25 215.25L113.75 215.25A4 4 0 0 1 109.75 211.25L109.75 133.75A4 4 0 0 1 113.75 129.75Z" fill="none" stroke="#1b1b1b" stroke-width="1.5" stroke-linecap="round" stroke-linejoin="round"/><path d="M138.89 155.03L144.35 155.03L145.94 157.43L147.7 155.83L147.7 193.45L138.89 193.45Z" fill="none" stroke="#1b1b1b" stroke-width="1.6" stroke-linecap="round" stroke-linejoin="round"/><path d="M138.89 160.63L147.7 160.63" fill="none" stroke="#1b1b1b" stroke-width="1.6" stroke-linecap="round" stroke-linejoin="round"/><path d="M138.89 189.45L147.7 189.45" fill="none" stroke="#1b1b1b" stroke-width="1.6" stroke-linecap="round" stroke-linejoin="round"/><path d="M141.53 167.04L141.53 182.69" fill="none" stroke="#1b1b1b" stroke-width="1.6" stroke-linecap="round" stroke-linejoin="round"/><path d="M155.7 175.84L165.31 175.84A2.4 2.4 0 0 1 167.71 178.24L167.71 191.05A2.4 2.4 0 0 1 165.31 193.45L155.7 193.45A2.4 2.4 0 0 1 153.3 191.05L153.3 178.24A2.4 2.4 0 0 1 155.7 175.84Z" fill="none" stroke="#1b1b1b" stroke-width="1.6" stroke-linecap="round" stroke-linejoin="round"/><path d="M158.13 171.84L162.87 171.84A0.8 0.8 0 0 1 163.67 172.64L163.67 175.04A0.8 0.8 0 0 1 162.87 175.84L158.13 175.84A0.8 0.8 0 0 1 157.33 175.04L157.33 172.64A0.8 0.8 0 0 1 158.13 171.84Z" fill="none" stroke="#1b1b1b" stroke-width="1.6" stroke-linecap="round" stroke-linejoin="round"/><path d="M158.49 171.84L160.5 165.44L162.52 171.84" fill="none" stroke="#1b1b1b" stroke-width="1.6" stroke-linecap="round" stroke-linejoin="round"/><path d="M172.51 159.03Q175.71 163.83 172.51 165.04Q169.31 163.83 172.51 159.03" fill="#1b1b1b"/><text x="116" y="142" font-family="'Schibsted Grotesk', 'Noto Sans KR', sans-serif" font-weight="700" font-size="7.5" text-anchor="start" letter-spacing="0.9" fill="#1b1b1b">앞 오른쪽</text><path d="M217.5 57.2A4.5 4.5 0 0 1 226.5 57.2" fill="#1b1b1b"/><path d="M213 57.2L231 57.2" fill="none" stroke="#1b1b1b" stroke-width="2" stroke-linecap="round" stroke-linejoin="round"/><path d="M216.23 54.26L213.98 53.11" fill="none" stroke="#1b1b1b" stroke-width="2" stroke-linecap="round" stroke-linejoin="round"/><path d="M222 50.72L222 48.2" fill="none" stroke="#1b1b1b" stroke-width="2" stroke-linecap="round" stroke-linejoin="round"/><path d="M227.77 54.26L230.02 53.11" fill="none" stroke="#1b1b1b" stroke-width="2" stroke-linecap="round" stroke-linejoin="round"/><text x="238" y="62.5" font-family="'Schibsted Grotesk', 'Noto Sans KR', sans-serif" font-weight="800" font-size="18" text-anchor="start" fill="#1b1b1b">08:30</text><path d="M302 44.5L311 44.5A2 2 0 0 1 313 46.5L313 52.5A2 2 0 0 1 311 54.5L302 54.5A2 2 0 0 1 300 52.5L300 46.5A2 2 0 0 1 302 44.5Z" fill="#1b1b1b"/><path d="M317 44.5L326 44.5A2 2 0 0 1 328 46.5L328 52.5A2 2 0 0 1 326 54.5L317 54.5A2 2 0 0 1 315 52.5L315 46.5A2 2 0 0 1 317 44.5Z" fill="#1b1b1b"/><path d="M302 56.5L311 56.5A2 2 0 0 1 313 58.5L313 64.5A2 2 0 0 1 311 66.5L302 66.5A2 2 0 0 1 300 64.5L300 58.5A2 2 0 0 1 302 56.5Z" fill="#1b1b1b"/><path d="M317 56.5L326 56.5A2 2 0 0 1 328 58.5L328 64.5A2 2 0 0 1 326 66.5L317 66.5A2 2 0 0 1 315 64.5L315 58.5A2 2 0 0 1 317 56.5Z" fill="#1b1b1b"/><path d="M359.28 56.82L364.08 61.62L373.2 51.7" fill="none" stroke="#1b1b1b" stroke-width="2.56" stroke-linecap="round" stroke-linejoin="round"/><path d="M226.05 99.5A4.05 4.05 0 1 1 217.95 99.5A4.05 4.05 0 1 1 226.05 99.5" fill="#1b1b1b"/><path d="M227.94 99.5L231 99.5" fill="none" stroke="#1b1b1b" stroke-width="2" stroke-linecap="round" stroke-linejoin="round"/><path d="M226.2 103.7L228.36 105.86" fill="none" stroke="#1b1b1b" stroke-width="2" stroke-linecap="round" stroke-linejoin="round"/><path d="M222 105.44L222 108.5" fill="none" stroke="#1b1b1b" stroke-width="2" stroke-linecap="round" stroke-linejoin="round"/><path d="M217.8 103.7L215.64 105.86" fill="none" stroke="#1b1b1b" stroke-width="2" stroke-linecap="round" stroke-linejoin="round"/><path d="M216.06 99.5L213 99.5" fill="none" stroke="#1b1b1b" stroke-width="2" stroke-linecap="round" stroke-linejoin="round"/><path d="M217.8 95.3L215.64 93.14" fill="none" stroke="#1b1b1b" stroke-width="2" stroke-linecap="round" stroke-linejoin="round"/><path d="M222 93.56L222 90.5" fill="none" stroke="#1b1b1b" stroke-width="2" stroke-linecap="round" stroke-linejoin="round"/><path d="M226.2 95.3L228.36 93.14" fill="none" stroke="#1b1b1b" stroke-width="2" stroke-linecap="round" stroke-linejoin="round"/><text x="238" y="107.5" font-family="'Schibsted Grotesk', 'Noto Sans KR', sans-serif" font-weight="800" font-size="18" text-anchor="start" fill="#1b1b1b">12:30</text><path d="M302.5 90L310.5 90A2 2 0 0 1 312.5 92L312.5 97A2 2 0 0 1 310.5 99L302.5 99A2 2 0 0 1 300.5 97L300.5 92A2 2 0 0 1 302.5 90Z" fill="none" stroke="#1b1b1b" stroke-width="1" stroke-linecap="round" stroke-linejoin="round" stroke-dasharray="1.5 2"/><path d="M317.5 90L325.5 90A2 2 0 0 1 327.5 92L327.5 97A2 2 0 0 1 325.5 99L317.5 99A2 2 0 0 1 315.5 97L315.5 92A2 2 0 0 1 317.5 90Z" fill="none" stroke="#1b1b1b" stroke-width="1" stroke-linecap="round" stroke-linejoin="round" stroke-dasharray="1.5 2"/><path d="M302 101.5L311 101.5A2 2 0 0 1 313 103.5L313 109.5A2 2 0 0 1 311 111.5L302 111.5A2 2 0 0 1 300 109.5L300 103.5A2 2 0 0 1 302 101.5Z" fill="#1b1b1b"/><path d="M317.5 102L325.5 102A2 2 0 0 1 327.5 104L327.5 109A2 2 0 0 1 325.5 111L317.5 111A2 2 0 0 1 315.5 109L315.5 104A2 2 0 0 1 317.5 102Z" fill="none" stroke="#1b1b1b" stroke-width="1" stroke-linecap="round" stroke-linejoin="round" stroke-dasharray="1.5 2"/><path d="M359.28 101.82L364.08 106.62L373.2 96.7" fill="none" stroke="#1b1b1b" stroke-width="2.56" stroke-linecap="round" stroke-linejoin="round"/><path d="M217.05 148.1A4.95 4.95 0 0 1 226.95 148.1" fill="#1b1b1b"/><path d="M213 148.1L231 148.1" fill="none" stroke="#1b1b1b" stroke-width="2" stroke-linecap="round" stroke-linejoin="round"/><path d="M216.6 150.98L227.4 150.98" fill="none" stroke="#1b1b1b" stroke-width="2" stroke-linecap="round" stroke-linejoin="round"/><text x="238" y="152.5" font-family="'Schibsted Grotesk', 'Noto Sans KR', sans-serif" font-weight="800" font-size="18" text-anchor="start" fill="#1b1b1b">18:30</text><path d="M302 134.5L311 134.5A2 2 0 0 1 313 136.5L313 142.5A2 2 0 0 1 311 144.5L302 144.5A2 2 0 0 1 300 142.5L300 136.5A2 2 0 0 1 302 134.5Z" fill="#1b1b1b"/><path d="M317 134.5L326 134.5A2 2 0 0 1 328 136.5L328 142.5A2 2 0 0 1 326 144.5L317 144.5A2 2 0 0 1 315 142.5L315 136.5A2 2 0 0 1 317 134.5Z" fill="#1b1b1b"/><path d="M302 146.5L311 146.5A2 2 0 0 1 313 148.5L313 154.5A2 2 0 0 1 311 156.5L302 156.5A2 2 0 0 1 300 154.5L300 148.5A2 2 0 0 1 302 146.5Z" fill="#1b1b1b"/><path d="M317.5 147L325.5 147A2 2 0 0 1 327.5 149L327.5 154A2 2 0 0 1 325.5 156L317.5 156A2 2 0 0 1 315.5 154L315.5 149A2 2 0 0 1 317.5 147Z" fill="none" stroke="#1b1b1b" stroke-width="1" stroke-linecap="round" stroke-linejoin="round" stroke-dasharray="1.5 2"/><path d="M374 146.5A8 8 0 1 1 358 146.5A8 8 0 1 1 374 146.5" fill="none" stroke="#c8102e" stroke-width="2.5" stroke-linecap="round" stroke-linejoin="round"/><path d="M360 152.5L372 140.5" fill="none" stroke="#c8102e" stroke-width="2.5" stroke-linecap="round" stroke-linejoin="round"/><path d="M210.75 171.75L379.25 171.75A4 4 0 0 1 383.25 175.75L383.25 207.25A4 4 0 0 1 379.25 211.25L210.75 211.25A4 4 0 0 1 206.75 207.25L206.75 175.75A4 4 0 0 1 210.75 171.75Z" fill="none" stroke="#1b1b1b" stroke-width="1.5" stroke-linecap="round" stroke-linejoin="round"/><path d="M227.58 189.5A5.58 5.58 0 1 1 216.42 189.5A5.58 5.58 0 1 1 227.58 189.5" fill="#1b1b1b"/><path d="M230.19 187.52A5.04 5.04 0 1 1 220.11 187.52A5.04 5.04 0 1 1 230.19 187.52" fill="#e8e7e1"/><text x="238" y="197.5" font-family="'Schibsted Grotesk', 'Noto Sans KR', sans-serif" font-weight="800" font-size="18" text-anchor="start" fill="#1b1b1b">22:00</text><path d="M302 179.5L311 179.5A2 2 0 0 1 313 181.5L313 187.5A2 2 0 0 1 311 189.5L302 189.5A2 2 0 0 1 300 187.5L300 181.5A2 2 0 0 1 302 179.5Z" fill="#1b1b1b"/><path d="M317.5 180L325.5 180A2 2 0 0 1 327.5 182L327.5 187A2 2 0 0 1 325.5 189L317.5 189A2 2 0 0 1 315.5 187L315.5 182A2 2 0 0 1 317.5 180Z" fill="none" stroke="#1b1b1b" stroke-width="1" stroke-linecap="round" stroke-linejoin="round" stroke-dasharray="1.5 2"/><path d="M302.5 192L310.5 192A2 2 0 0 1 312.5 194L312.5 199A2 2 0 0 1 310.5 201L302.5 201A2 2 0 0 1 300.5 199L300.5 194A2 2 0 0 1 302.5 192Z" fill="none" stroke="#1b1b1b" stroke-width="1" stroke-linecap="round" stroke-linejoin="round" stroke-dasharray="1.5 2"/><path d="M317 191.5L326 191.5A2 2 0 0 1 328 193.5L328 199.5A2 2 0 0 1 326 201.5L317 201.5A2 2 0 0 1 315 199.5L315 193.5A2 2 0 0 1 317 191.5Z" fill="#1b1b1b"/><text x="374" y="194.5" font-family="'Schibsted Grotesk', 'Noto Sans KR', sans-serif" font-weight="700" font-size="8.5" text-anchor="end" letter-spacing="1.02" fill="#1b1b1b">다음</text><path d="M16 224L384 224" fill="none" stroke="#1b1b1b" stroke-width="1" stroke-linecap="round" stroke-linejoin="round"/><path d="M55 258A15 15 0 1 1 25 258A15 15 0 1 1 55 258" fill="none" stroke="#c8102e" stroke-width="3" stroke-linecap="round" stroke-linejoin="round"/><path d="M30 268L50 248" fill="none" stroke="#c8102e" stroke-width="3" stroke-linecap="round" stroke-linejoin="round"/><text x="72" y="254" font-family="'Noto Sans KR', sans-serif" font-weight="900" font-size="20" text-anchor="start" fill="#c8102e">저녁 약 1칸을 안 여셨어요</text><text x="72" y="277" font-family="'Noto Sans KR', sans-serif" font-weight="500" font-size="13" text-anchor="start" fill="#1b1b1b">지은님께 한 번 알렸어요</text></svg>