<?xml version="1.0" encoding="UTF-8"?>
<svg xmlns="http://www.w3.org/2000/svg" id="lyra-M08-put-back" viewBox="0 0 400 300" width="400" height="300"><rect x="0" y="0" width="400" height="300" fill="#e8e7e1"/><path d="M34 52L106 52A10 10 0 0 1 116 62L116 134A10 10 0 0 1 106 144L34 144A10 10 0 0 1 24 134L24 62A10 10 0 0 1 34 52Z" fill="none" stroke="#1b1b1b" stroke-width="4" stroke-linecap="round" stroke-linejoin="round" stroke-dasharray="10 7"/><path d="M70 69.2L70 126.8" fill="none" stroke="#1b1b1b" stroke-width="6" stroke-linecap="round" stroke-linejoin="round"/><path d="M70 126.8L65.69 118.9M70 126.8L74.31 118.9" fill="none" stroke="#1b1b1b" stroke-width="6" stroke-linecap="round" stroke-linejoin="round"/><path d="M139 51L213 51A10 10 0 0 1 223 61L223 135A10 10 0 0 1 213 145L139 145A10 10 0 0 1 129 135L129 61A10 10 0 0 1 139 51Z" fill="none" stroke="#1b1b1b" stroke-width="1.5" stroke-linecap="round" stroke-linejoin="round" stroke-dasharray="2 6"/><path d="M33 157L107 157A10 10 0 0 1 117 167L117 241A10 10 0 0 1 107 251L33 251A10 10 0 0 1 23 241L23 167A10 10 0 0 1 33 157Z" fill="none" stroke="#1b1b1b" stroke-width="1.5" stroke-linecap="round" stroke-linejoin="round" stroke-dasharray="2 6"/><path d="M139 157L213 157A10 10 0 0 1 223 167L223 241A10 10 0 0 1 213 251L139 251A10 10 0 0 1 129 241L129 167A10 10 0 0 1 139 157Z" fill="none" stroke="#1b1b1b" stroke-width="1.5" stroke-linecap="round" stroke-linejoin="round" stroke-dasharray="2 6"/><text x="236" y="96" font-family="'Noto Sans KR', sans-serif" font-weight="900" font-size="26" text-anchor="start" fill="#1b1b1b">병을</text><text x="236" y="129.8" font-family="'Noto Sans KR', sans-serif" font-weight="900" font-size="26" text-anchor="start" fill="#1b1b1b">여기에</text><text x="236" y="163.6" font-family="'Noto Sans KR', sans-serif" font-weight="900" font-size="26" text-anchor="start" fill="#1b1b1b">놓아 주세요</text></svg>